<svg xmlns="http://www.w3.org/2000/svg" viewBox="0 0 100 100" shape-rendering="geometricPrecision">
<rect width="100" height="100" rx="20" fill="#fff"/>
<g transform="translate(14.517,13.852) scale(0.14784)"><path d="M1,1 L2,360 L200,359 L200,112 L335,360 L479,360 L292,14 L284,5 L273,1Z M324,298 L429,298 L452,343 L349,343Z M288,230 L393,230 L416,275 L313,275Z M252,162 L357,162 L380,207 L277,207Z M212,94 L317,94 L340,139 L237,139Z" fill="#000" fill-rule="evenodd"/><circle cx="432.12" cy="440.14" r="48.13" fill="#000"/><circle cx="304.12" cy="440.15" r="48.13" fill="#000"/><circle cx="176.12" cy="440.15" r="48.13" fill="#000"/><circle cx="48.16" cy="440.13" r="48.09" fill="#000"/></g>
</svg>